# xmcd
#
# Track frame offsets:
#	150
#	12797
#	28262
#	42870
#	56517
#	69447
#	79790
#	95050
#	108487
#	123337
#	139317
#	154372
#	166802
#	180827
#	197362
#
# Disc length: 2772 seconds
#
# Revision: 1
# Processed by: cddbd v1.5.2PL0 Copyright (c) Steve Scherf et al.
# Submitted via: audiograbber 1.83.01
#
DISCID=c00ad20f
DTITLE=Various Artist - Sentimiento Ranchero Disco 2
DYEAR=1900
DGENRE=Latin
TTITLE0=Trio Tariacuri - Soldado de Levita
TTITLE1=Trio Los Dandys - Aquel Amor
TTITLE2=Trio Calaveras - Al Caer la Tarde
TTITLE3=Trio Los Tres Caballeros - Cielito Lindo
TTITLE4=Los Tres Ases - Se Me Hizo Facil
TTITLE5=Trio Gamica Ascencio - Te He De Querer
TTITLE6=Los Delfines - Golondrina Presumida
TTITLE7=Trio Calaveras - La Cigarra
TTITLE8=Los Tres Gallos - Para Morir Iguales
TTITLE9=Los Canciones del Sur - Varita De Nardo
TTITLE10=Trio Los Santos - Acapulqueña
TTITLE11=Los Padrinos - Fallaste Corazon
TTITLE12=Trio Los Piratas - La Mancornadora
TTITLE13=Trio Tariacuri - La Llorona
TTITLE14=Trio Tamaulipeco - El Sinaloense
EXTD=Los Mejores Trios
EXTT0=
EXTT1=
EXTT2=
EXTT3=
EXTT4=
EXTT5=
EXTT6=
EXTT7=
EXTT8=
EXTT9=
EXTT10=
EXTT11=
EXTT12=
EXTT13=
EXTT14=
PLAYORDER=
